<?xml version="1.0" encoding="UTF-8" standalone="no"?>
<!-- Created with Inkscape (http://www.inkscape.org/) -->
<svg xmlns:dc="http://purl.org/dc/elements/1.1/" xmlns:cc="http://creativecommons.org/ns#" xmlns:rdf="http://www.w3.org/1999/02/22-rdf-syntax-ns#" xmlns:svg="http://www.w3.org/2000/svg" xmlns="http://www.w3.org/2000/svg" xmlns:xlink="http://www.w3.org/1999/xlink" version="1.1" width="38.533512" height="123.53858" id="svg4020">
  <defs id="defs4022">
    <linearGradient x1="570.41736" y1="783.8949" x2="568.28418" y2="661.8949" id="linearGradient4825" xlink:href="#linearGradient10781" gradientUnits="userSpaceOnUse"/>
    <linearGradient id="linearGradient10781">
      <stop id="stop10783" style="stop-color:#000000;stop-opacity:1" offset="0"/>
      <stop id="stop10785" style="stop-color:#000000;stop-opacity:0" offset="1"/>
    </linearGradient>
    <filter color-interpolation-filters="sRGB" id="filter10817">
      <feGaussianBlur stdDeviation="2.5976149" id="feGaussianBlur10819"/>
    </filter>
    <linearGradient id="linearGradient10705">
      <stop id="stop10707" style="stop-color:#ffffff;stop-opacity:0.07317073" offset="0"/>
      <stop id="stop4802" style="stop-color:#ffffff;stop-opacity:0.47967479" offset="0.33333334"/>
      <stop id="stop10709" style="stop-color:#ffffff;stop-opacity:0" offset="1"/>
    </linearGradient>
    <linearGradient x1="261.96802" y1="546.27875" x2="299.44409" y2="546.27875" id="linearGradient4018" xlink:href="#linearGradient10705" gradientUnits="userSpaceOnUse"/>
  </defs>
  <metadata id="metadata4025">
    <rdf:RDF>
      <cc:Work rdf:about="">
        <dc:format>image/svg+xml</dc:format>
        <dc:type rdf:resource="http://purl.org/dc/dcmitype/StillImage"/>
        <dc:title/>
      </cc:Work>
    </rdf:RDF>
  </metadata>
  <g transform="translate(-275.72503,-430.22375)" id="layer1">
    <g transform="translate(14.285717,-54.285714)" id="g4820">
      <path d="m 267.2553,485.03898 c -1.82714,0.0161 -3.5225,0.27097 -4.94335,1.12482 -2.64276,8.26288 10.55841,10.57448 18.61729,13.63498 -6.20172,-0.134 -12.28552,-1.04433 -18.45784,-1.39916 l 0,7.87372 21.68697,9.43749 -21.68697,-5.0754 0,9.16315 0.0399,0 c -0.24104,0.32817 -0.30197,0.89647 -0.0798,1.78324 -2.53895,7.77335 9.82278,9.23571 17.58079,11.35791 0.40286,2.58554 -10.37588,-0.96599 -14.27193,0.49383 -8.37128,5.7704 7.75618,10.15343 13.99287,12.37299 -0.85628,2.2596 -12.21807,-1.66798 -17.26186,-1.72838 l 0,8.86136 5.90013,0.74074 c -5.30734,4.10363 -7.79122,9.95678 -3.46832,14.89697 3.99879,6.83681 15.26301,-1.38126 20.8099,0.85047 -6.21502,4.42984 -17.05219,7.22363 -17.46118,14.26597 1.30557,6.98339 13.45509,10.96438 16.68933,23.82564 3.17254,-12.94106 16.74649,-18.29601 11.33628,-24.40176 -2.86378,-3.9229 -21.05183,2.03185 -12.19892,-3.5665 6.75128,-3.58696 16.35668,-7.55674 15.10911,-14.37571 0.3369,-8.84181 -16.54033,-8.28876 -23.28158,-5.10283 1.45554,-1.43655 3.74435,-3.17441 4.90347,-4.85592 l 9.52792,1.17969 c 2.90562,-0.0886 8.99498,2.48285 8.77045,-0.90534 2.15053,-7.04129 -6.38902,-11.42414 -15.02937,-13.52524 -1.99098,-3.67524 10.93149,0.0298 14.86991,-0.93278 l 0,-9.32775 -28.78304,-10.09592 28.78304,6.72147 0,-7.10555 c 0.24505,-0.323 0.30931,-0.90742 0.0796,-1.86556 2.26784,-8.59657 -12.13924,-10.14793 -20.25176,-13.27833 0.47335,-2.98729 15.64145,4.17879 19.61393,-0.65842 1.726,-7.61389 -13.02546,-8.50734 -19.81327,-11.79687 6.49834,-1.20536 13.56079,1.69822 20.37137,1.64608 l 0,-9.05341 -22.3248,-0.74073 c -2.95164,0.19125 -6.3232,-0.46569 -9.36843,-0.43896 z" id="path3388" style="fill:#777777;fill-opacity:1;stroke:#000000;stroke-width:1.05744243;stroke-linecap:round;stroke-linejoin:round;stroke-miterlimit:4;stroke-opacity:1;stroke-dasharray:none;marker-end:none"/>
      <path d="m 267.2553,485.03898 c -1.82714,0.0161 -3.5225,0.27097 -4.94335,1.12482 -2.64276,8.26288 10.55841,10.57448 18.61729,13.63498 -6.20172,-0.134 -12.28552,-1.04433 -18.45784,-1.39916 l 0,7.87372 21.68697,9.43749 -21.68697,-5.0754 0,9.16315 0.0399,0 c -0.24104,0.32817 -0.30197,0.89647 -0.0798,1.78324 -2.53895,7.77335 9.82278,9.23571 17.58079,11.35791 0.40286,2.58554 -10.37588,-0.96599 -14.27193,0.49383 -8.37128,5.7704 7.75618,10.15343 13.99287,12.37299 -0.85628,2.2596 -12.21807,-1.66798 -17.26186,-1.72838 l 0,8.86136 5.90013,0.74074 c -5.30734,4.10363 -7.79122,9.95678 -3.46832,14.89697 3.99879,6.83681 15.26301,-1.38126 20.8099,0.85047 -6.21502,4.42984 -17.05219,7.22363 -17.46118,14.26597 1.30557,6.98339 13.45509,10.96438 16.68933,23.82564 3.17254,-12.94106 16.74649,-18.29601 11.33628,-24.40176 -2.86378,-3.9229 -21.05183,2.03185 -12.19892,-3.5665 6.75128,-3.58696 16.35668,-7.55674 15.10911,-14.37571 0.3369,-8.84181 -16.54033,-8.28876 -23.28158,-5.10283 1.45554,-1.43655 3.74435,-3.17441 4.90347,-4.85592 l 9.52792,1.17969 c 2.90562,-0.0886 8.99498,2.48285 8.77045,-0.90534 2.15053,-7.04129 -6.38902,-11.42414 -15.02937,-13.52524 -1.99098,-3.67524 10.93149,0.0298 14.86991,-0.93278 l 0,-9.32775 -28.78304,-10.09592 28.78304,6.72147 0,-7.10555 c 0.24505,-0.323 0.30931,-0.90742 0.0796,-1.86556 2.26784,-8.59657 -12.13924,-10.14793 -20.25176,-13.27833 0.47335,-2.98729 15.64145,4.17879 19.61393,-0.65842 1.726,-7.61389 -13.02546,-8.50734 -19.81327,-11.79687 6.49834,-1.20536 13.56079,1.69822 20.37137,1.64608 l 0,-9.05341 -22.3248,-0.74073 c -2.95164,0.19125 -6.3232,-0.46569 -9.36843,-0.43896 z" id="path4808" style="fill:url(#linearGradient4018);fill-opacity:1;stroke:#000000;stroke-width:1.05744243;stroke-linecap:round;stroke-linejoin:round;stroke-miterlimit:4;stroke-opacity:1;stroke-dasharray:none;marker-end:none"/>
    </g>
  </g>
</svg>
