<?xml version="1.0" encoding="iso-8859-1"?>
<!-- Generator: $$$/GeneralStr/196=Adobe Illustrator 27.6.0, SVG Export Plug-In . SVG Version: 6.00 Build 0)  -->
<svg version="1.1" id="Capa_1" xmlns="http://www.w3.org/2000/svg" xmlns:xlink="http://www.w3.org/1999/xlink" x="0px" y="0px"
	 viewBox="0 0 486.1 486.1" style="enable-background:new 0 0 486.1 486.1;" xml:space="preserve">
<style type="text/css">
	.st0{font-family:'Times';font-size:190px;font-style:italic}
</style>
<path id="cadre" d="M445.5,0H40.7C18.3,0,0,18.3,0,40.7v404.7c0,22.4,18.3,40.7,40.7,40.7h404.7c22.4,0,40.7-18.3,40.7-40.7V40.7
	C486.2,18.3,467.9,0,445.5,0z M462.2,445.5c0,9.2-7.5,16.7-16.7,16.7H40.7c-9.2,0-16.7-7.5-16.7-16.7V40.7C24,31.5,31.5,24,40.7,24
	h404.7c9.2,0,16.7,7.5,16.7,16.7L462.2,445.5L462.2,445.5z"/>
<text transform="matrix(1 0 0 1 88.9724 180.5931)" class="st0">x</text>
<text transform="matrix(1 0 0 1 306.7422 180.5931)" class="st0">n</text>
<text transform="matrix(1 0 0 1 306.7422 387.1713)" class="st0">a</text>
<text transform="matrix(1 0 0 1 98.5745 387.1713)" class="st0">t</text>
</svg>
