<?xml version="1.0" encoding="utf-8"?>
<!-- Generator: Adobe Illustrator 16.0.4, SVG Export Plug-In . SVG Version: 6.00 Build 0)  -->
<!DOCTYPE svg PUBLIC "-//W3C//DTD SVG 1.1//EN" "http://www.w3.org/Graphics/SVG/1.1/DTD/svg11.dtd">
<svg version="1.1"
	 id="svg3038" inkscape:version="0.48.4 r9939" sodipodi:docname="communiquer.svg" xmlns:dc="http://purl.org/dc/elements/1.1/" xmlns:cc="http://creativecommons.org/ns#" xmlns:rdf="http://www.w3.org/1999/02/22-rdf-syntax-ns#" xmlns:svg="http://www.w3.org/2000/svg" xmlns:sodipodi="http://sodipodi.sourceforge.net/DTD/sodipodi-0.dtd" xmlns:inkscape="http://www.inkscape.org/namespaces/inkscape"
	 xmlns="http://www.w3.org/2000/svg" xmlns:xlink="http://www.w3.org/1999/xlink" x="0px" y="0px" width="35.434px"
	 height="35.434px" viewBox="0 0 35.434 35.434" enable-background="new 0 0 35.434 35.434" xml:space="preserve">
<sodipodi:namedview units="cm" inkscape:window-maximized="1" inkscape:window-y="0" inkscape:window-x="0" inkscape:current-layer="layer1" inkscape:document-units="px" inkscape:pageopacity="0.0" inkscape:window-height="850" inkscape:window-width="1600" inkscape:pageshadow="2" inkscape:showpageshadow="false" showgrid="false" inkscape:cy="18.779679" inkscape:cx="39.97134" inkscape:zoom="11.2" borderopacity="1.0" bordercolor="#666666" pagecolor="#ffffff" id="base">
	</sodipodi:namedview>
<g id="layer1" transform="translate(0,-1016.9292)" inkscape:groupmode="layer" inkscape:label="Calque 1">
		<g id="g3997" transform="matrix(0.28346457,0,0,0.28346457,-103.60377,753.938)" inkscape:export-xdpi="92.160004">
			<path id="path3516" inkscape:connector-curvature="0" fill-opacity="0.9912" d="
			M382.071,1038.994c-3.359-1.702-4.268-5.219-2.825-10.966c1.654-6.597,3.421-9.357,7.435-11.613
			c3.314-1.86,4.554-1.919,40.89-1.919c33.845,0,37.782,0.158,40.666,1.605c4.086,2.057,6.68,5.981,8.241,12.482
			c1.461,6.098,0.503,9.271-3.228,10.69C469.504,1040.695,384.923,1040.437,382.071,1038.994z M381.661,1007.554
			c-1.254-1.254-1.44-5.529-1.44-32.949c0-27.419,0.186-31.691,1.44-32.945c1.271-1.271,6.728-1.44,46.168-1.44
			c42.164,0,44.81,0.093,46.243,1.674c1.347,1.492,1.516,5.137,1.516,32.949c0,27.202-0.186,31.457-1.44,32.711
			c-1.271,1.268-6.735,1.44-46.243,1.44S382.932,1008.821,381.661,1007.554L381.661,1007.554z M467.337,974.605V948.47h-39.432
			h-39.432v26.134v26.134h39.432h39.432V974.605z"/>
	</g>
</g>
</svg>
