<?xml version="1.0" encoding="utf-8"?>
<!-- Generator: Adobe Illustrator 16.0.4, SVG Export Plug-In . SVG Version: 6.00 Build 0)  -->
<!DOCTYPE svg PUBLIC "-//W3C//DTD SVG 1.1//EN" "http://www.w3.org/Graphics/SVG/1.1/DTD/svg11.dtd">
<svg version="1.1"
	 id="Capa" xmlns:osb="http://www.openswatchbook.org/uri/2009/osb" xmlns:dc="http://purl.org/dc/elements/1.1/" xmlns:cc="http://creativecommons.org/ns#" xmlns:rdf="http://www.w3.org/1999/02/22-rdf-syntax-ns#" xmlns:svg="http://www.w3.org/2000/svg" xmlns:sodipodi="http://sodipodi.sourceforge.net/DTD/sodipodi-0.dtd" xmlns:inkscape="http://www.inkscape.org/namespaces/inkscape"
	 xmlns="http://www.w3.org/2000/svg" xmlns:xlink="http://www.w3.org/1999/xlink" x="0px" y="0px" width="300px" height="300px"
	 viewBox="0 0 300 300" enable-background="new 0 0 300 300" xml:space="preserve">
<symbol  id="touch" viewBox="-14 -14 28 28">
	<path id="path3848_1_" d="M9.584,14H-9.584C-12.025,14-14,12.023-14,9.584V-9.584C-14-12.025-12.023-14-9.584-14H9.584
		C12.024-14,14-12.023,14-9.584v19.17C13.999,12.021,12.023,14,9.584,14L9.584,14z M-5.168,5.167H5.168V-5.167H-5.168V5.167z"/>
</symbol>
<g id="calculator" transform="translate(100,100)">
	<g id="contour">
		<path id="path3844" d="M115.596,162.871H-15.595c-11.791,0-21.383-9.592-21.383-21.383V-41.487
			c0-11.791,9.592-21.384,21.383-21.384h131.191c11.788,0,21.383,9.593,21.383,21.384v182.975
			C136.979,153.279,127.384,162.871,115.596,162.871z M-15.596-53.908c-6.849,0-12.42,5.573-12.42,12.421v182.975
			c0,6.848,5.571,12.422,12.42,12.422h131.192c6.848,0,12.418-5.574,12.418-12.422V-41.487c0-6.849-5.57-12.421-12.418-12.421
			H-15.596z"/>
	</g>
	<g id="touches">
		<g id="line4_x2B_Enter">
			<g id="Enter">
				<path id="path3902" d="M110.419,142.152H90.971c-2.478,0-4.482-2.008-4.482-4.482V83.617c0-2.477,2.01-4.48,4.482-4.48h19.448
					c2.476,0,4.481,2.006,4.481,4.48v54.051C114.9,140.145,112.893,142.152,110.419,142.152z M95.452,133.189h10.485V88.1H95.452
					V133.189z"/>
			</g>
			<use xlink:href="#touch" width="28" height="28" x="-14" y="-14" transform="matrix(1 0 0 1 0 128)" overflow="visible"/>
			<use xlink:href="#touch" width="28" height="28" x="-14" y="-14" transform="matrix(1 0 0 1 33 128)" overflow="visible"/>
			<use xlink:href="#touch" width="28" height="28" x="-14" y="-14" transform="matrix(1 0 0 1 66 128)" overflow="visible"/>

		</g>
		<g id="line3">
			<use xlink:href="#touch" width="28" height="28" x="-14" y="-14" transform="matrix(1 0 0 1 0 94)" overflow="visible"/>
			<use xlink:href="#touch" width="28" height="28" x="-14" y="-14" transform="matrix(1 0 0 1 33 94)" overflow="visible"/>
			<use xlink:href="#touch" width="28" height="28" x="-14" y="-14" transform="matrix(1 0 0 1 66 94)" overflow="visible"/>
		</g>
		<g id="line2">
			<use xlink:href="#touch" width="28" height="28" x="-14" y="-14" transform="matrix(1 0 0 -1 0 60)" overflow="visible"/>
			<use xlink:href="#touch" width="28" height="28" x="-14" y="-14" transform="matrix(1 0 0 -1 33 60)" overflow="visible"/>
			<use xlink:href="#touch" width="28" height="28" x="-14" y="-14" transform="matrix(1 0 0 -1 66 60)" overflow="visible"/>
			<use xlink:href="#touch" width="28" height="28" x="-14" y="-14" transform="matrix(1 0 0 -1 99 60)" overflow="visible"/>
		</g>
		<g id="line1">
			<use xlink:href="#touch" width="28" height="28" x="-14" y="-14" transform="matrix(1 0 0 -1 0 26)" overflow="visible"/>
			<use xlink:href="#touch" width="28" height="28" x="-14" y="-14" transform="matrix(1 0 0 -1 33 26)" overflow="visible"/>
			<use xlink:href="#touch" width="28" height="28" x="-14" y="-14" transform="matrix(1 0 0 -1 66 26)" overflow="visible"/>
			<use xlink:href="#touch" width="28" height="28" x="-14" y="-14" transform="matrix(1 0 0 -1 99 26)" overflow="visible"/>
		</g>
	</g>
	<g id="screen">
		<g id="g3920">
			<path id="path3918" d="M110.419,1.987H-10.42c-2.476,0-4.48-2.006-4.48-4.481v-37.63c0-2.476,2.006-4.481,4.48-4.481h120.839
				c2.476,0,4.481,2.006,4.481,4.481v37.63C114.9-0.019,112.893,1.987,110.419,1.987z M-5.938-6.976h111.875v-28.667H-5.938V-6.976z
				"/>
		</g>
		<g id="g3924">
			<path id="path3922" d="M96.596-11.204c-2.477,0-4.479-2.007-4.479-4.481v-11.248c0-2.477,2.004-4.481,4.479-4.481
				c2.479,0,4.482,2.006,4.482,4.481v11.248C101.081-13.21,99.072-11.204,96.596-11.204z"/>
		</g>
	</g>
</g>
<g id="interdictor" transform="translate(100,100)">
	<path id="bar" stroke="#FF0000" stroke-width="25" d="M-51.855-38.633L-51.855-38.633l196.236,186.201"/>
	<ellipse id="circle" fill="none" stroke="#FF0000" stroke-width="15" stroke-miterlimit="10" cx="50" cy="50" rx="136.75" ry="136.75"/>
</g>
</svg>
