<?xml version="1.0" encoding="iso-8859-1"?>
<!DOCTYPE svg PUBLIC "-//W3C//DTD SVG 1.1//EN" "http://www.w3.org/Graphics/SVG/1.1/DTD/svg11.dtd">
<svg version="1.1" id="Capa_1" xmlns="http://www.w3.org/2000/svg" xmlns:xlink="http://www.w3.org/1999/xlink" x="0px" y="0px"
	 viewBox="0 0 100 100" style="enable-background:new 0 0 100 100;" xml:space="preserve">
<symbol id="touch" viewBox="0 0 16 16">
	<rect x="3" y="3" rx="3" ry="3" width="10" height="10" style="fill:transparent;stroke:black;stroke-width:3;" />
</symbol>
<g id="calculator">
	<g id="contour">
		<rect x="10" y="4" rx="10" ry="10" width="80" height="92" style="fill:transparent;stroke:black;stroke-width:5;" />
	</g>
	<g id="touches">
		<g id="line4_x2B_Enter">
			<g id="Enter">
				<rect x="68" y="61" rx="3" ry="3" width="10" height="26" style="fill:transparent;stroke:black;stroke-width:3;" />
			</g>
			<use xlink:href="#touch" width="16" height="16" x="0" y="0" transform="translate(20,74)" overflow="visible"/>
			<use xlink:href="#touch" width="16" height="16" x="0" y="0" transform="translate(35,74)" overflow="visible"/>
			<use xlink:href="#touch" width="16" height="16" x="0" y="0" transform="translate(50,74)" overflow="visible"/>
		</g>
		<g id="line3">
			<use xlink:href="#touch" width="16" height="16" x="0" y="0" transform="translate(20,58)" overflow="visible"/>
			<use xlink:href="#touch" width="16" height="16" x="0" y="0" transform="translate(35,58)" overflow="visible"/>
			<use xlink:href="#touch" width="16" height="16" x="0" y="0" transform="translate(50,58)" overflow="visible"/>
		</g>
		<g id="line2">
			<use xlink:href="#touch" width="16" height="16" x="0" y="0" transform="translate(20,42)" overflow="visible"/>
			<use xlink:href="#touch" width="16" height="16" x="0" y="0" transform="translate(35,42)" overflow="visible"/>
			<use xlink:href="#touch" width="16" height="16" x="0" y="0" transform="translate(50,42)" overflow="visible"/>
			<use xlink:href="#touch" width="16" height="16" x="0" y="0" transform="translate(65,42)" overflow="visible"/>
		</g>
		<g id="line1">
			<use xlink:href="#touch" width="16" height="16" x="0" y="0" transform="translate(20,26)" overflow="visible"/>
			<use xlink:href="#touch" width="16" height="16" x="0" y="0" transform="translate(35,26)" overflow="visible"/>
			<use xlink:href="#touch" width="16" height="16" x="0" y="0" transform="translate(50,26)" overflow="visible"/>
			<use xlink:href="#touch" width="16" height="16" x="0" y="0" transform="translate(65,26)" overflow="visible"/>
		</g>
	</g>
	<g id="screen">
		<rect x="20" y="11" rx="3" ry="3" width="60" height="14" style="fill:transparent;stroke:black;stroke-width:3;" />
		<line x1="73" y1="14" x2="73" y2="22" style="stroke:rgb(0,0,0);stroke-width:3" />
	</g>
</g>

</svg>
