<?xml version="1.0" encoding="utf-8"?>
<!-- Generator: Adobe Illustrator 16.0.4, SVG Export Plug-In . SVG Version: 6.00 Build 0)  -->
<!DOCTYPE svg PUBLIC "-//W3C//DTD SVG 1.1//EN" "http://www.w3.org/Graphics/SVG/1.1/DTD/svg11.dtd">
<svg version="1.1"
	 id="svg3038" inkscape:version="0.48.4 r9939" sodipodi:docname="sapproprier_rechercher_extraire.svg" xmlns:dc="http://purl.org/dc/elements/1.1/" xmlns:cc="http://creativecommons.org/ns#" xmlns:rdf="http://www.w3.org/1999/02/22-rdf-syntax-ns#" xmlns:svg="http://www.w3.org/2000/svg" xmlns:sodipodi="http://sodipodi.sourceforge.net/DTD/sodipodi-0.dtd" xmlns:inkscape="http://www.inkscape.org/namespaces/inkscape"
	 xmlns="http://www.w3.org/2000/svg" xmlns:xlink="http://www.w3.org/1999/xlink" x="0px" y="0px" width="35.434px"
	 height="35.434px" viewBox="0 0 35.434 35.434" enable-background="new 0 0 35.434 35.434" xml:space="preserve">
<sodipodi:namedview  units="cm" inkscape:window-maximized="1" inkscape:window-y="0" inkscape:window-x="0" inkscape:current-layer="layer1" inkscape:document-units="px" inkscape:pageopacity="0.0" inkscape:window-height="850" inkscape:window-width="1600" inkscape:pageshadow="2" inkscape:showpageshadow="false" showgrid="false" inkscape:cy="18.779679" inkscape:cx="39.97134" inkscape:zoom="11.2" borderopacity="1.0" bordercolor="#666666" pagecolor="#ffffff" id="base">
	</sodipodi:namedview>
<g id="layer1" transform="translate(0,-1016.9292)" inkscape:groupmode="layer" inkscape:label="Calque 1">
	
		<g id="g3968" transform="matrix(0.28346457,0,0,0.28346457,-61.804698,754.59904)" inkscape:export-xdpi="92.160011" inkscape:export-ydpi="92.160011" inkscape:export-filename="/home/mo/Dropbox/2013-2014/Info/Site_aca/compétences_grilles_uniques/Analyser_raisonner_128.png">
		
			<path id="path3068" inkscape:export-xdpi="95.924126" inkscape:export-ydpi="95.924126" inkscape:export-filename="/home/mo/Dropbox/2013-2014/Info/Site_aca/compétences_grilles_uniques/bandeau_competences.png" inkscape:connector-curvature="0" fill-opacity="0.9912" d="
			M265.192,1033.148c-0.989-8.148-1.12-8.255-9.433-7.617c-10.938,0.841-13.804-1.423-11.713-9.257
			c0.772-2.894,0.696-3.738-0.448-4.999c-1.03-1.14-1.13-1.767-0.396-2.501c0.734-0.73,0.624-1.237-0.444-2.019
			c-0.803-0.586-1.443-2.267-1.468-3.852c-0.038-2.198-0.599-3.121-2.56-4.213c-1.381-0.768-2.642-1.791-2.804-2.27
			c-0.158-0.482,1.822-4.241,4.406-8.358c4.107-6.539,4.579-7.734,3.765-9.522c-1.257-2.76,1.154-12.53,4.985-20.185
			c7.369-14.735,24.019-22.407,42.898-19.764c9.477,1.326,15.024,3.476,20.819,8.079c8.761,6.952,13.381,17.818,12.633,29.7
			c-0.513,8.141-3.063,14.821-8.192,21.477c-6.311,8.189-6.98,9.595-8.044,16.881c-0.892,6.125-0.813,7.576,0.734,13.601
			c0.951,3.71,2.026,7.421,2.391,8.248c0.624,1.409-0.779,1.499-22.934,1.499h-23.599L265.192,1033.148L265.192,1033.148z
			 M292.525,998.917l0.782-2.725l2.315,1.712c1.647,1.216,2.983,1.543,4.62,1.133c2.332-0.586,5.702-4.072,5.702-5.901
			c0-0.565,1.382-1.04,3.187-1.089c3.983-0.114,6.618-2.921,5.798-6.18c-0.906-3.61-0.885-3.848,0.3-3.886
			c3.132-0.107,5.04-11.896,2.294-14.173c-0.699-0.582-1.054-1.416-0.782-1.857c0.272-0.438,0.141-1.261-0.286-1.829
			s-0.83-1.998-0.889-3.176c-0.062-1.178-0.899-2.673-1.867-3.318c-0.965-0.648-1.754-1.891-1.754-2.766
			c0-1.895-2.463-3.517-7.714-5.075c-2.122-0.63-4.503-1.688-5.288-2.35c-0.789-0.661-2.525-1.099-3.859-0.968
			s-3.266-0.22-4.296-0.785c-2.339-1.278-5.981-1.326-6.745-0.09c-0.351,0.572-1.736,0.717-3.548,0.379
			c-2.15-0.403-3.607-0.134-5.257,0.978c-1.292,0.865-3.914,1.554-6.022,1.574c-3.176,0.034-4.113,0.482-6.274,3.014
			c-1.399,1.636-4.196,4.713-6.218,6.832c-2.022,2.122-3.934,4.675-4.244,5.674c-0.723,2.312,0.779,6.305,2.942,7.82
			c0.92,0.648,1.674,2.133,1.674,3.307c0,2.539,3.263,6.05,6.339,6.821c1.209,0.303,3.366,0.148,4.785-0.348
			c2.432-0.847,2.587-0.772,2.587,1.261c0,1.261,1.071,3.235,2.57,4.737c2.115,2.112,3.166,2.525,5.915,2.329
			c3.821-0.276,5.671,0.909,6.487,4.169c0.314,1.251,1.116,3.576,1.781,5.171C289.077,1002.938,291.426,1002.752,292.525,998.917
			L292.525,998.917z M286.234,979.797c0-2.17,0.334-2.57,2.143-2.57c1.809,0,2.143,0.4,2.143,2.57c0,2.174-0.334,2.573-2.143,2.573
			C286.569,982.37,286.234,981.971,286.234,979.797z M286.234,973.451c0-0.661,1.35-2.818,3.001-4.792
			c1.647-1.977,2.997-3.91,2.997-4.296c0-3.927-5.361-4.902-7.011-1.275c-1.333,2.925-5.381,3.114-4.548,0.214
			c1.554-5.395,9.023-7.6,13.587-4.01c3.249,2.556,2.997,5.97-0.744,10.111c-1.65,1.826-2.997,3.755-2.997,4.286
			c0,0.534-0.965,0.968-2.143,0.968C287.106,974.657,286.234,974.164,286.234,973.451z"/>
	</g>
</g>
</svg>
