<?xml version="1.0" encoding="iso-8859-1"?>
<!-- Generator: Adobe Illustrator 18.0.0, SVG Export Plug-In . SVG Version: 6.00 Build 0)  -->
<!DOCTYPE svg PUBLIC "-//W3C//DTD SVG 1.1//EN" "http://www.w3.org/Graphics/SVG/1.1/DTD/svg11.dtd">
<svg version="1.1" id="Capa_1" xmlns="http://www.w3.org/2000/svg" xmlns:xlink="http://www.w3.org/1999/xlink" x="0px" y="0px"
	 viewBox="0 0 60 60" style="enable-background:new 0 0 60 60;" xml:space="preserve">
<g>
	<path d="M58.232,58.29l-5.969-6.244c1.746-1.919,2.82-4.458,2.82-7.25C55.083,38.843,50.24,34,44.287,34
		s-10.796,4.843-10.796,10.796s4.843,10.796,10.796,10.796c2.441,0,4.688-0.824,6.499-2.196l6.001,6.277
		c0.196,0.205,0.459,0.309,0.723,0.309c0.249,0,0.497-0.092,0.691-0.277C58.599,59.322,58.614,58.689,58.232,58.29z M35.491,44.796
		c0-4.85,3.946-8.796,8.796-8.796s8.796,3.946,8.796,8.796s-3.946,8.796-8.796,8.796S35.491,49.646,35.491,44.796z"/>
	<path d="M18.491,22h20V12h-20V22z M21.491,14h14v2h-14V14z M21.491,18h14v2h-14V18z"/>
	<path d="M30.491,44.796C30.491,37.188,36.679,31,44.287,31c1.105,0,2.174,0.145,3.204,0.391V0h-36h-10v60h10h36v-1.799
		c-1.03,0.246-2.099,0.391-3.204,0.391C36.679,58.592,30.491,52.403,30.491,44.796z M9.491,58h-6V2h6V58z M16.491,10h24v14h-24V10z"
		/>
</g>
</svg>
